<svg width="95" height="185" viewBox="0 0 95 185" fill="none" xmlns="http://www.w3.org/2000/svg">
<path d="M35 12.5H60C77.9492 12.5 92.5 27.0507 92.5 45V147.5H2.5V45C2.5 27.0507 17.0507 12.5 35 12.5Z" stroke="black" stroke-width="5"/>
<path d="M35 15H60V150H35V15Z" fill="white"/>
<path d="M20 2.5H75C76.3807 2.5 77.5 3.61929 77.5 5V17.5H17.5V5C17.5 3.61929 18.6193 2.5 20 2.5Z" fill="#E9E4DE" stroke="black" stroke-width="5"/>
<path d="M2.5 147.5H92.5V175C92.5 179.142 89.1421 182.5 85 182.5H10C5.85787 182.5 2.5 179.142 2.5 175V147.5Z" fill="#E9E4DE" stroke="black" stroke-width="5"/>
</svg>
