<svg width="16" height="17" viewBox="0 0 16 17" fill="none" xmlns="http://www.w3.org/2000/svg">
<path d="M5.71594 10.92V7.52H7.73594C8.37594 7.52 8.84927 7.35333 9.15594 7.02C9.4626 6.68667 9.61594 6.27333 9.61594 5.78C9.61594 5.44667 9.54927 5.15333 9.41594 4.9C9.29594 4.64667 9.10927 4.44667 8.85594 4.3C8.6026 4.15333 8.29594 4.08 7.93594 4.08C7.57594 4.08 7.26927 4.16 7.01594 4.32C6.77594 4.46667 6.58927 4.66667 6.45594 4.92C6.3226 5.17333 6.25594 5.46 6.25594 5.78H2.77594C2.77594 4.86 2.9826 4.04 3.39594 3.32C3.80927 2.58667 4.40927 2.01333 5.19594 1.6C5.99594 1.17333 6.94927 0.959999 8.05594 0.959999C9.09594 0.959999 9.98927 1.15333 10.7359 1.54C11.4959 1.91333 12.0759 2.44 12.4759 3.12C12.8893 3.78667 13.0959 4.57333 13.0959 5.48V5.72C13.0959 6.6 12.8826 7.36667 12.4559 8.02C12.0426 8.67333 11.4359 9.18667 10.6359 9.56C9.84927 9.92 8.89594 10.12 7.77594 10.16L9.35594 9L9.31594 10.92H5.71594ZM5.47594 16V12.52H9.55594V16H5.47594Z" fill="#7A746C"/>
</svg>
