<svg width="44" height="44" viewBox="0 0 44 44" fill="none" xmlns="http://www.w3.org/2000/svg">
<path d="M10.5 15C10.5 11.4101 13.4101 8.5 17 8.5H22C25.5899 8.5 28.5 11.4101 28.5 15V35.5H10.5V15Z" stroke="#7A746C"/>
<path d="M17.5 9H22.5V36H17.5V9Z" fill="#C4C4C4"/>
<path d="M13.5 7C13.5 6.72386 13.7239 6.5 14 6.5H25C25.2761 6.5 25.5 6.72386 25.5 7V9.5H13.5V7Z" fill="#C4C4C4" stroke="#7A746C"/>
<path d="M10.5 35.5H28.5V41C28.5 41.8284 27.8284 42.5 27 42.5H12C11.1716 42.5 10.5 41.8284 10.5 41V35.5Z" stroke="#7A746C"/>
<circle cx="31.5" cy="9.5" r="7.5" fill="#7A746C"/>
<path d="M29 7L31.5 9.50001M31.5 9.50001L34 7.00003M31.5 9.50001L29 12M31.5 9.50001L34 12" stroke="#FFBD59"/>
</svg>
